<mxfile host="app.diagrams.net" agent="Mozilla/5.0 (Windows NT 10.0; Win64; x64; rv:133.0) Gecko/20100101 Firefox/133.0" version="25.0.3">
  <diagram name="Pagina-1" id="6KG7eUqO8uxzKmbCFn6A">
    <mxGraphModel dx="1290" dy="511" grid="1" gridSize="10" guides="1" tooltips="1" connect="1" arrows="1" fold="1" page="1" pageScale="1" pageWidth="850" pageHeight="1100" math="0" shadow="0">
      <root>
        <mxCell id="0" />
        <mxCell id="1" parent="0" />
        <mxCell id="w6Vy-4yXhrZIZgirDHm_-2" value="&#xa;  &#xa;    &#xa;      &#xa;        &#xa;        &#xa;        &#xa;          &#xa;        &#xa;        &#xa;          &#xa;        &#xa;        &#xa;          &#xa;        &#xa;        &#xa;          &#xa;        &#xa;        &#xa;          &#xa;        &#xa;        &#xa;          &#xa;        &#xa;        &#xa;          &#xa;        &#xa;        &#xa;          &#xa;            &#xa;            &#xa;              &#xa;            &#xa;          &#xa;        &#xa;        &#xa;          &#xa;        &#xa;        &#xa;          &#xa;            &#xa;            &#xa;              &#xa;            &#xa;          &#xa;        &#xa;        &#xa;          &#xa;        &#xa;        &#xa;          &#xa;            &#xa;            &#xa;              &#xa;            &#xa;          &#xa;        &#xa;        &#xa;          &#xa;        &#xa;        &#xa;          &#xa;            &#xa;            &#xa;              &#xa;            &#xa;          &#xa;        &#xa;        &#xa;          &#xa;            &#xa;            &#xa;          &#xa;        &#xa;        &#xa;          &#xa;            &#xa;            &#xa;          &#xa;        &#xa;        &#xa;          &#xa;            &#xa;            &#xa;            &#xa;              &#xa;            &#xa;          &#xa;        &#xa;      &#xa;    &#xa;  &#xa;&#xa;&#xa;&#xa;    &#xa;" style="text;whiteSpace=wrap;html=1;" parent="1" vertex="1">
          <mxGeometry x="330" y="490" width="30" height="1410" as="geometry" />
        </mxCell>
        <mxCell id="yX1Fl0R12Xeu3HnyX83A-72" value="" style="shape=umlLifeline;perimeter=lifelinePerimeter;whiteSpace=wrap;html=1;container=1;dropTarget=0;collapsible=0;recursiveResize=0;outlineConnect=0;portConstraint=eastwest;newEdgeStyle={&quot;curved&quot;:0,&quot;rounded&quot;:0};participant=umlActor;" parent="1" vertex="1">
          <mxGeometry x="140" y="120" width="20" height="390" as="geometry" />
        </mxCell>
        <mxCell id="yX1Fl0R12Xeu3HnyX83A-73" value="" style="html=1;points=[[0,0,0,0,5],[0,1,0,0,-5],[1,0,0,0,5],[1,1,0,0,-5]];perimeter=orthogonalPerimeter;outlineConnect=0;targetShapes=umlLifeline;portConstraint=eastwest;newEdgeStyle={&quot;curved&quot;:0,&quot;rounded&quot;:0};" parent="yX1Fl0R12Xeu3HnyX83A-72" vertex="1">
          <mxGeometry x="5" y="60" width="10" height="330" as="geometry" />
        </mxCell>
        <mxCell id="yX1Fl0R12Xeu3HnyX83A-74" value=":Rubrica" style="shape=umlLifeline;perimeter=lifelinePerimeter;whiteSpace=wrap;html=1;container=1;dropTarget=0;collapsible=0;recursiveResize=0;outlineConnect=0;portConstraint=eastwest;newEdgeStyle={&quot;curved&quot;:0,&quot;rounded&quot;:0};" parent="1" vertex="1">
          <mxGeometry x="1030" y="120" width="100" height="550" as="geometry" />
        </mxCell>
        <mxCell id="yX1Fl0R12Xeu3HnyX83A-75" value="handleAggiungiContatto()" style="html=1;verticalAlign=bottom;endArrow=block;curved=0;rounded=0;" parent="1" edge="1">
          <mxGeometry width="80" relative="1" as="geometry">
            <mxPoint x="155" y="210" as="sourcePoint" />
            <mxPoint x="360" y="210" as="targetPoint" />
            <Array as="points">
              <mxPoint x="250" y="210" />
            </Array>
          </mxGeometry>
        </mxCell>
        <mxCell id="yX1Fl0R12Xeu3HnyX83A-76" value=":RubricaController" style="shape=umlLifeline;perimeter=lifelinePerimeter;whiteSpace=wrap;html=1;container=1;dropTarget=0;collapsible=0;recursiveResize=0;outlineConnect=0;portConstraint=eastwest;newEdgeStyle={&quot;curved&quot;:0,&quot;rounded&quot;:0};" parent="1" vertex="1">
          <mxGeometry x="320" y="120" width="100" height="640" as="geometry" />
        </mxCell>
        <mxCell id="yX1Fl0R12Xeu3HnyX83A-77" value="" style="html=1;points=[[0,0,0,0,5],[0,1,0,0,-5],[1,0,0,0,5],[1,1,0,0,-5]];perimeter=orthogonalPerimeter;outlineConnect=0;targetShapes=umlLifeline;portConstraint=eastwest;newEdgeStyle={&quot;curved&quot;:0,&quot;rounded&quot;:0};" parent="yX1Fl0R12Xeu3HnyX83A-76" vertex="1">
          <mxGeometry x="45" y="70" width="10" height="570" as="geometry" />
        </mxCell>
        <mxCell id="yX1Fl0R12Xeu3HnyX83A-78" value=":Contatto" style="shape=umlLifeline;perimeter=lifelinePerimeter;whiteSpace=wrap;html=1;container=1;dropTarget=0;collapsible=0;recursiveResize=0;outlineConnect=0;portConstraint=eastwest;newEdgeStyle={&quot;curved&quot;:0,&quot;rounded&quot;:0};" parent="1" vertex="1">
          <mxGeometry x="920" y="120" width="100" height="590" as="geometry" />
        </mxCell>
        <mxCell id="yX1Fl0R12Xeu3HnyX83A-102" value="" style="html=1;points=[[0,0,0,0,5],[0,1,0,0,-5],[1,0,0,0,5],[1,1,0,0,-5]];perimeter=orthogonalPerimeter;outlineConnect=0;targetShapes=umlLifeline;portConstraint=eastwest;newEdgeStyle={&quot;curved&quot;:0,&quot;rounded&quot;:0};" parent="yX1Fl0R12Xeu3HnyX83A-78" vertex="1">
          <mxGeometry x="45" y="440" width="10" height="150" as="geometry" />
        </mxCell>
        <mxCell id="yX1Fl0R12Xeu3HnyX83A-79" value="" style="endArrow=block;endFill=1;html=1;edgeStyle=orthogonalEdgeStyle;align=left;verticalAlign=top;rounded=0;" parent="1" edge="1">
          <mxGeometry x="-1" relative="1" as="geometry">
            <mxPoint x="375" y="750.03" as="sourcePoint" />
            <mxPoint x="1026" y="750" as="targetPoint" />
          </mxGeometry>
        </mxCell>
        <mxCell id="yX1Fl0R12Xeu3HnyX83A-80" value="aggiungiContatto(nuovoContatto)" style="edgeLabel;resizable=0;html=1;align=left;verticalAlign=bottom;" parent="yX1Fl0R12Xeu3HnyX83A-79" connectable="0" vertex="1">
          <mxGeometry x="-1" relative="1" as="geometry">
            <mxPoint x="50" y="-2" as="offset" />
          </mxGeometry>
        </mxCell>
        <mxCell id="yX1Fl0R12Xeu3HnyX83A-81" value=":RubricaView" style="shape=umlLifeline;perimeter=lifelinePerimeter;whiteSpace=wrap;html=1;container=1;dropTarget=0;collapsible=0;recursiveResize=0;outlineConnect=0;portConstraint=eastwest;newEdgeStyle={&quot;curved&quot;:0,&quot;rounded&quot;:0};" parent="1" vertex="1">
          <mxGeometry x="570" y="120" width="100" height="430" as="geometry" />
        </mxCell>
        <mxCell id="yX1Fl0R12Xeu3HnyX83A-82" value="" style="html=1;points=[[0,0,0,0,5],[0,1,0,0,-5],[1,0,0,0,5],[1,1,0,0,-5]];perimeter=orthogonalPerimeter;outlineConnect=0;targetShapes=umlLifeline;portConstraint=eastwest;newEdgeStyle={&quot;curved&quot;:0,&quot;rounded&quot;:0};" parent="yX1Fl0R12Xeu3HnyX83A-81" vertex="1">
          <mxGeometry x="45" y="70" width="10" height="360" as="geometry" />
        </mxCell>
        <mxCell id="yX1Fl0R12Xeu3HnyX83A-83" value="Contatto(String nome, String cognome, NumeroTel num1, NumeroTel num2, NumeroTel num3, Email mail1, Email mail2, Email mail3)" style="html=1;verticalAlign=bottom;endArrow=block;curved=0;rounded=0;" parent="1" edge="1">
          <mxGeometry x="-0.0179" y="10" relative="1" as="geometry">
            <mxPoint x="380" y="680" as="sourcePoint" />
            <mxPoint x="959.5" y="680" as="targetPoint" />
            <mxPoint as="offset" />
          </mxGeometry>
        </mxCell>
        <mxCell id="yX1Fl0R12Xeu3HnyX83A-84" value="nuovoContatto" style="html=1;verticalAlign=bottom;endArrow=open;dashed=1;endSize=8;curved=0;rounded=0;exitX=0;exitY=1;exitDx=0;exitDy=-5;" parent="1" source="yX1Fl0R12Xeu3HnyX83A-102" edge="1">
          <mxGeometry relative="1" as="geometry">
            <mxPoint x="380" y="705" as="targetPoint" />
          </mxGeometry>
        </mxCell>
        <mxCell id="yX1Fl0R12Xeu3HnyX83A-85" value="getText()" style="html=1;verticalAlign=bottom;endArrow=block;curved=0;rounded=0;" parent="1" edge="1">
          <mxGeometry width="80" relative="1" as="geometry">
            <mxPoint x="379" y="270" as="sourcePoint" />
            <mxPoint x="609" y="270" as="targetPoint" />
          </mxGeometry>
        </mxCell>
        <mxCell id="yX1Fl0R12Xeu3HnyX83A-86" value="&amp;nbsp;Cognome" style="html=1;verticalAlign=bottom;endArrow=open;dashed=1;endSize=8;curved=0;rounded=0;" parent="1" edge="1">
          <mxGeometry relative="1" as="geometry">
            <mxPoint x="608.5" y="290" as="sourcePoint" />
            <mxPoint x="378.5" y="290" as="targetPoint" />
          </mxGeometry>
        </mxCell>
        <mxCell id="yX1Fl0R12Xeu3HnyX83A-87" value="getText()" style="html=1;verticalAlign=bottom;endArrow=block;curved=0;rounded=0;" parent="1" edge="1">
          <mxGeometry width="80" relative="1" as="geometry">
            <mxPoint x="378.5" y="310" as="sourcePoint" />
            <mxPoint x="608.5" y="310" as="targetPoint" />
          </mxGeometry>
        </mxCell>
        <mxCell id="yX1Fl0R12Xeu3HnyX83A-88" value="&amp;nbsp;Email1" style="html=1;verticalAlign=bottom;endArrow=open;dashed=1;endSize=8;curved=0;rounded=0;" parent="1" edge="1">
          <mxGeometry relative="1" as="geometry">
            <mxPoint x="609" y="334.5" as="sourcePoint" />
            <mxPoint x="379" y="334.5" as="targetPoint" />
          </mxGeometry>
        </mxCell>
        <mxCell id="yX1Fl0R12Xeu3HnyX83A-89" value="getText()" style="html=1;verticalAlign=bottom;endArrow=block;curved=0;rounded=0;" parent="1" edge="1">
          <mxGeometry width="80" relative="1" as="geometry">
            <mxPoint x="379" y="360" as="sourcePoint" />
            <mxPoint x="609" y="360" as="targetPoint" />
          </mxGeometry>
        </mxCell>
        <mxCell id="yX1Fl0R12Xeu3HnyX83A-90" value="Email2" style="html=1;verticalAlign=bottom;endArrow=open;dashed=1;endSize=8;curved=0;rounded=0;" parent="1" edge="1">
          <mxGeometry relative="1" as="geometry">
            <mxPoint x="609" y="379.5" as="sourcePoint" />
            <mxPoint x="379" y="379.5" as="targetPoint" />
          </mxGeometry>
        </mxCell>
        <mxCell id="yX1Fl0R12Xeu3HnyX83A-92" value="getText()" style="html=1;verticalAlign=bottom;endArrow=block;curved=0;rounded=0;" parent="1" edge="1">
          <mxGeometry width="80" relative="1" as="geometry">
            <mxPoint x="379" y="400" as="sourcePoint" />
            <mxPoint x="609" y="400" as="targetPoint" />
          </mxGeometry>
        </mxCell>
        <mxCell id="yX1Fl0R12Xeu3HnyX83A-93" value="Email3" style="html=1;verticalAlign=bottom;endArrow=open;dashed=1;endSize=8;curved=0;rounded=0;" parent="1" edge="1">
          <mxGeometry relative="1" as="geometry">
            <mxPoint x="608.5" y="420" as="sourcePoint" />
            <mxPoint x="378.5" y="420" as="targetPoint" />
          </mxGeometry>
        </mxCell>
        <mxCell id="yX1Fl0R12Xeu3HnyX83A-94" value="getText()" style="html=1;verticalAlign=bottom;endArrow=block;curved=0;rounded=0;" parent="1" edge="1">
          <mxGeometry width="80" relative="1" as="geometry">
            <mxPoint x="378.5" y="440" as="sourcePoint" />
            <mxPoint x="608.5" y="440" as="targetPoint" />
          </mxGeometry>
        </mxCell>
        <mxCell id="yX1Fl0R12Xeu3HnyX83A-95" value="NumeroTel1" style="html=1;verticalAlign=bottom;endArrow=open;dashed=1;endSize=8;curved=0;rounded=0;" parent="1" edge="1">
          <mxGeometry relative="1" as="geometry">
            <mxPoint x="609" y="460" as="sourcePoint" />
            <mxPoint x="379" y="460" as="targetPoint" />
          </mxGeometry>
        </mxCell>
        <mxCell id="yX1Fl0R12Xeu3HnyX83A-96" value="getText()" style="html=1;verticalAlign=bottom;endArrow=block;curved=0;rounded=0;" parent="1" edge="1">
          <mxGeometry width="80" relative="1" as="geometry">
            <mxPoint x="379" y="480" as="sourcePoint" />
            <mxPoint x="609" y="480" as="targetPoint" />
          </mxGeometry>
        </mxCell>
        <mxCell id="yX1Fl0R12Xeu3HnyX83A-97" value="NumeroTel2" style="html=1;verticalAlign=bottom;endArrow=open;dashed=1;endSize=8;curved=0;rounded=0;" parent="1" edge="1">
          <mxGeometry relative="1" as="geometry">
            <mxPoint x="608.5" y="500" as="sourcePoint" />
            <mxPoint x="378.5" y="500" as="targetPoint" />
          </mxGeometry>
        </mxCell>
        <mxCell id="yX1Fl0R12Xeu3HnyX83A-98" value="getText()" style="html=1;verticalAlign=bottom;endArrow=block;curved=0;rounded=0;" parent="1" edge="1">
          <mxGeometry width="80" relative="1" as="geometry">
            <mxPoint x="379" y="230" as="sourcePoint" />
            <mxPoint x="609" y="230" as="targetPoint" />
          </mxGeometry>
        </mxCell>
        <mxCell id="yX1Fl0R12Xeu3HnyX83A-99" value="&amp;nbsp;Nome" style="html=1;verticalAlign=bottom;endArrow=open;dashed=1;endSize=8;curved=0;rounded=0;" parent="1" edge="1">
          <mxGeometry relative="1" as="geometry">
            <mxPoint x="608.5" y="250" as="sourcePoint" />
            <mxPoint x="378.5" y="250" as="targetPoint" />
          </mxGeometry>
        </mxCell>
        <mxCell id="yX1Fl0R12Xeu3HnyX83A-100" value="getText()" style="html=1;verticalAlign=bottom;endArrow=block;curved=0;rounded=0;" parent="1" edge="1">
          <mxGeometry width="80" relative="1" as="geometry">
            <mxPoint x="379" y="520" as="sourcePoint" />
            <mxPoint x="609" y="520" as="targetPoint" />
          </mxGeometry>
        </mxCell>
        <mxCell id="yX1Fl0R12Xeu3HnyX83A-101" value="NumeroTel3" style="html=1;verticalAlign=bottom;endArrow=open;dashed=1;endSize=8;curved=0;rounded=0;" parent="1" edge="1">
          <mxGeometry relative="1" as="geometry">
            <mxPoint x="609" y="540" as="sourcePoint" />
            <mxPoint x="379" y="540" as="targetPoint" />
          </mxGeometry>
        </mxCell>
        <mxCell id="yX1Fl0R12Xeu3HnyX83A-91" value="" style="html=1;points=[[0,0,0,0,5],[0,1,0,0,-5],[1,0,0,0,5],[1,1,0,0,-5]];perimeter=orthogonalPerimeter;outlineConnect=0;targetShapes=umlLifeline;portConstraint=eastwest;newEdgeStyle={&quot;curved&quot;:0,&quot;rounded&quot;:0};" parent="1" vertex="1">
          <mxGeometry x="1030" y="630" width="10" height="130" as="geometry" />
        </mxCell>
        <mxCell id="-QBxyTD44zqgiUK16Mzj-1" value="" style="html=1;verticalAlign=bottom;endArrow=block;curved=0;rounded=0;" edge="1" parent="1">
          <mxGeometry width="80" relative="1" as="geometry">
            <mxPoint x="380" y="560" as="sourcePoint" />
            <mxPoint x="840" y="560" as="targetPoint" />
          </mxGeometry>
        </mxCell>
        <mxCell id="-QBxyTD44zqgiUK16Mzj-2" value="new NumeroTel x3" style="html=1;verticalAlign=bottom;endArrow=block;curved=0;rounded=0;" edge="1" parent="1" target="-QBxyTD44zqgiUK16Mzj-14">
          <mxGeometry width="80" relative="1" as="geometry">
            <mxPoint x="370" y="600" as="sourcePoint" />
            <mxPoint x="710" y="600" as="targetPoint" />
          </mxGeometry>
        </mxCell>
        <mxCell id="-QBxyTD44zqgiUK16Mzj-3" value="Contatto(String nome, String cognome, NumeroTel num1, NumeroTel num2, NumeroTel num3, Email mail1, Email mail2, Email mail3)" style="html=1;verticalAlign=bottom;endArrow=block;curved=0;rounded=0;" edge="1" parent="1">
          <mxGeometry width="80" relative="1" as="geometry">
            <mxPoint x="380" y="650" as="sourcePoint" />
            <mxPoint x="959.5" y="650" as="targetPoint" />
          </mxGeometry>
        </mxCell>
        <mxCell id="-QBxyTD44zqgiUK16Mzj-5" value="new Email x3" style="text;html=1;align=center;verticalAlign=middle;resizable=0;points=[];autosize=1;strokeColor=none;fillColor=none;" vertex="1" parent="1">
          <mxGeometry x="595" y="540" width="90" height="30" as="geometry" />
        </mxCell>
        <mxCell id="-QBxyTD44zqgiUK16Mzj-7" value=":NumeroTel" style="shape=umlLifeline;perimeter=lifelinePerimeter;whiteSpace=wrap;html=1;container=1;dropTarget=0;collapsible=0;recursiveResize=0;outlineConnect=0;portConstraint=eastwest;newEdgeStyle={&quot;curved&quot;:0,&quot;rounded&quot;:0};" vertex="1" parent="1">
          <mxGeometry x="685" y="120" width="100" height="510" as="geometry" />
        </mxCell>
        <mxCell id="-QBxyTD44zqgiUK16Mzj-14" value="" style="html=1;points=[[0,0,0,0,5],[0,1,0,0,-5],[1,0,0,0,5],[1,1,0,0,-5]];perimeter=orthogonalPerimeter;outlineConnect=0;targetShapes=umlLifeline;portConstraint=eastwest;newEdgeStyle={&quot;curved&quot;:0,&quot;rounded&quot;:0};" vertex="1" parent="-QBxyTD44zqgiUK16Mzj-7">
          <mxGeometry x="45" y="470" width="10" height="40" as="geometry" />
        </mxCell>
        <mxCell id="-QBxyTD44zqgiUK16Mzj-8" value=":Email" style="shape=umlLifeline;perimeter=lifelinePerimeter;whiteSpace=wrap;html=1;container=1;dropTarget=0;collapsible=0;recursiveResize=0;outlineConnect=0;portConstraint=eastwest;newEdgeStyle={&quot;curved&quot;:0,&quot;rounded&quot;:0};" vertex="1" parent="1">
          <mxGeometry x="800" y="120" width="100" height="470" as="geometry" />
        </mxCell>
        <mxCell id="-QBxyTD44zqgiUK16Mzj-13" value="" style="html=1;points=[[0,0,0,0,5],[0,1,0,0,-5],[1,0,0,0,5],[1,1,0,0,-5]];perimeter=orthogonalPerimeter;outlineConnect=0;targetShapes=umlLifeline;portConstraint=eastwest;newEdgeStyle={&quot;curved&quot;:0,&quot;rounded&quot;:0};" vertex="1" parent="-QBxyTD44zqgiUK16Mzj-8">
          <mxGeometry x="45" y="420" width="10" height="50" as="geometry" />
        </mxCell>
        <mxCell id="-QBxyTD44zqgiUK16Mzj-15" value="NumeroTel num1,NumeroTel num2, NumeroTel num3" style="html=1;verticalAlign=bottom;endArrow=open;dashed=1;endSize=8;curved=0;rounded=0;" edge="1" parent="1">
          <mxGeometry relative="1" as="geometry">
            <mxPoint x="730" y="620" as="sourcePoint" />
            <mxPoint x="380" y="620" as="targetPoint" />
          </mxGeometry>
        </mxCell>
        <mxCell id="-QBxyTD44zqgiUK16Mzj-18" value="Email mail1, Email mail2, Email mail3" style="html=1;verticalAlign=bottom;endArrow=open;dashed=1;endSize=8;curved=0;rounded=0;" edge="1" parent="1">
          <mxGeometry relative="1" as="geometry">
            <mxPoint x="840" y="580" as="sourcePoint" />
            <mxPoint x="380" y="580" as="targetPoint" />
          </mxGeometry>
        </mxCell>
      </root>
    </mxGraphModel>
  </diagram>
</mxfile>
